<svg xmlns="http://www.w3.org/2000/svg" width="53.41" height="48.07" viewBox="0 0 53.41 48.07">
  <g id="Icon_material-photo-camera" data-name="Icon material-photo-camera" transform="translate(0 0)">
    <path id="Trazado_39814" data-name="Trazado 39814" d="M30.291,21.746A8.546,8.546,0,1,1,21.746,13.2,8.546,8.546,0,0,1,30.291,21.746Z" transform="translate(4.96 4.96)" fill="#fff"/>
    <path id="Trazado_39815" data-name="Trazado 39815" d="M21.694,3,16.807,8.341H8.341A5.357,5.357,0,0,0,3,13.682V45.729A5.357,5.357,0,0,0,8.341,51.07H51.069a5.357,5.357,0,0,0,5.341-5.341V13.682a5.357,5.357,0,0,0-5.341-5.341H42.6L37.717,3Zm8.012,40.058A13.353,13.353,0,1,1,43.058,29.705,13.358,13.358,0,0,1,29.705,43.058Z" transform="translate(-3 -3)" fill="#fff"/>
  </g>
</svg>
